<svg width="142" height="34" viewBox="0 0 142 34" fill="none" xmlns="http://www.w3.org/2000/svg">
<path d="M42.112 26V16.688C42.112 15.008 42.424 13.592 43.048 12.44C43.672 11.288 44.544 10.424 45.664 9.848C46.784 9.256 48.088 8.96 49.576 8.96C51.064 8.96 52.368 9.256 53.488 9.848C54.608 10.424 55.48 11.288 56.104 12.44C56.728 13.592 57.04 15.008 57.04 16.688V26H53.92V16.4C53.92 14.816 53.52 13.64 52.72 12.872C51.936 12.088 50.88 11.696 49.552 11.696C48.24 11.696 47.184 12.088 46.384 12.872C45.584 13.64 45.184 14.816 45.184 16.4V26H42.112ZM44.08 21.68V19.064H55.024V21.68H44.08ZM63.2284 25.616V9.56H66.3244V25.616H63.2284ZM60.1324 26V23.384H69.4204V26H60.1324ZM60.1324 11.816V9.2H69.4204V11.816H60.1324ZM84.5824 8.192V26H82.3744V23.984C81.8624 24.688 81.2144 25.224 80.4304 25.592C79.6464 25.96 78.7824 26.144 77.8384 26.144C76.6064 26.144 75.5024 25.872 74.5264 25.328C73.5504 24.784 72.7824 24.024 72.2224 23.048C71.6784 22.056 71.4064 20.92 71.4064 19.64C71.4064 18.36 71.6784 17.232 72.2224 16.256C72.7824 15.28 73.5504 14.52 74.5264 13.976C75.5024 13.432 76.6064 13.16 77.8384 13.16C78.7504 13.16 79.5904 13.336 80.3584 13.688C81.1264 14.024 81.7664 14.528 82.2784 15.2V8.192H84.5824ZM78.0304 24.128C78.8304 24.128 79.5584 23.944 80.2144 23.576C80.8704 23.192 81.3824 22.664 81.7504 21.992C82.1184 21.304 82.3024 20.52 82.3024 19.64C82.3024 18.76 82.1184 17.984 81.7504 17.312C81.3824 16.624 80.8704 16.096 80.2144 15.728C79.5584 15.36 78.8304 15.176 78.0304 15.176C77.2144 15.176 76.4784 15.36 75.8224 15.728C75.1824 16.096 74.6704 16.624 74.2864 17.312C73.9184 17.984 73.7344 18.76 73.7344 19.64C73.7344 20.52 73.9184 21.304 74.2864 21.992C74.6704 22.664 75.1824 23.192 75.8224 23.576C76.4784 23.944 77.2144 24.128 78.0304 24.128ZM94.6778 24.128C96.1978 24.128 97.4218 23.616 98.3498 22.592L99.5978 24.08C99.0378 24.752 98.3258 25.264 97.4618 25.616C96.6138 25.968 95.6618 26.144 94.6058 26.144C93.2618 26.144 92.0698 25.872 91.0298 25.328C89.9898 24.768 89.1818 23.992 88.6058 23C88.0458 22.008 87.7658 20.888 87.7658 19.64C87.7658 18.408 88.0378 17.296 88.5818 16.304C89.1418 15.312 89.9018 14.544 90.8618 14C91.8378 13.44 92.9338 13.16 94.1498 13.16C95.3018 13.16 96.3498 13.424 97.2938 13.952C98.2378 14.464 98.9898 15.192 99.5498 16.136C100.11 17.08 100.398 18.168 100.414 19.4L90.3098 21.368C90.6298 22.248 91.1658 22.928 91.9178 23.408C92.6858 23.888 93.6058 24.128 94.6778 24.128ZM94.1498 15.104C93.3498 15.104 92.6298 15.288 91.9898 15.656C91.3658 16.024 90.8778 16.544 90.5258 17.216C90.1738 17.872 89.9978 18.64 89.9978 19.52V19.76L98.1338 18.224C97.9258 17.296 97.4618 16.544 96.7418 15.968C96.0218 15.392 95.1578 15.104 94.1498 15.104ZM115.637 13.28V26H113.429V23.984C112.917 24.688 112.269 25.224 111.485 25.592C110.701 25.96 109.837 26.144 108.893 26.144C107.661 26.144 106.557 25.872 105.581 25.328C104.605 24.784 103.837 24.024 103.277 23.048C102.733 22.056 102.461 20.92 102.461 19.64C102.461 18.36 102.733 17.232 103.277 16.256C103.837 15.28 104.605 14.52 105.581 13.976C106.557 13.432 107.661 13.16 108.893 13.16C109.805 13.16 110.645 13.336 111.413 13.688C112.181 14.024 112.821 14.528 113.333 15.2V13.28H115.637ZM109.085 24.128C109.885 24.128 110.613 23.944 111.269 23.576C111.925 23.192 112.437 22.664 112.805 21.992C113.173 21.304 113.357 20.52 113.357 19.64C113.357 18.76 113.173 17.984 112.805 17.312C112.437 16.624 111.925 16.096 111.269 15.728C110.613 15.36 109.885 15.176 109.085 15.176C108.269 15.176 107.533 15.36 106.877 15.728C106.237 16.096 105.725 16.624 105.341 17.312C104.973 17.984 104.789 18.76 104.789 19.64C104.789 20.52 104.973 21.304 105.341 21.992C105.725 22.664 106.237 23.192 106.877 23.576C107.533 23.944 108.269 24.128 109.085 24.128ZM126.693 25.256C126.357 25.544 125.941 25.768 125.445 25.928C124.949 26.072 124.437 26.144 123.909 26.144C122.629 26.144 121.637 25.8 120.933 25.112C120.229 24.424 119.877 23.44 119.877 22.16V10.496H122.181V13.28H125.829V15.176H122.181V22.064C122.181 22.752 122.349 23.28 122.685 23.648C123.037 24.016 123.533 24.2 124.173 24.2C124.877 24.2 125.477 24 125.973 23.6L126.693 25.256ZM134.779 24.128C136.299 24.128 137.523 23.616 138.451 22.592L139.699 24.08C139.139 24.752 138.427 25.264 137.563 25.616C136.715 25.968 135.763 26.144 134.707 26.144C133.363 26.144 132.171 25.872 131.131 25.328C130.091 24.768 129.283 23.992 128.707 23C128.147 22.008 127.867 20.888 127.867 19.64C127.867 18.408 128.139 17.296 128.683 16.304C129.243 15.312 130.003 14.544 130.963 14C131.939 13.44 133.035 13.16 134.251 13.16C135.403 13.16 136.451 13.424 137.395 13.952C138.339 14.464 139.091 15.192 139.651 16.136C140.211 17.08 140.499 18.168 140.515 19.4L130.411 21.368C130.731 22.248 131.267 22.928 132.019 23.408C132.787 23.888 133.707 24.128 134.779 24.128ZM134.251 15.104C133.451 15.104 132.731 15.288 132.091 15.656C131.467 16.024 130.979 16.544 130.627 17.216C130.275 17.872 130.099 18.64 130.099 19.52V19.76L138.235 18.224C138.027 17.296 137.563 16.544 136.843 15.968C136.123 15.392 135.259 15.104 134.251 15.104Z" fill="black"/>
<path d="M16.8778 0C14.4785 0 12.5067 1.97181 12.5067 4.37111V4.56625C10.8852 5.00258 9.43432 5.87124 8.55186 7.25266C8.45875 7.3908 8.39422 7.54616 8.36206 7.70962C8.3299 7.87307 8.33077 8.0413 8.3646 8.20442C8.39844 8.36753 8.46456 8.52223 8.55908 8.6594C8.65359 8.79658 8.7746 8.91346 8.91497 9.00317C9.05533 9.09288 9.21223 9.1536 9.37642 9.18177C9.5406 9.20993 9.70877 9.20497 9.87101 9.16717C10.0332 9.12936 10.1863 9.05949 10.3211 8.96166C10.4559 8.86382 10.5698 8.74 10.6561 8.59749C11.3406 7.52598 12.5038 6.78865 13.8515 6.68513C14.1653 6.66093 14.4583 6.51918 14.6721 6.28824C14.8858 6.0573 15.0045 5.75418 15.0044 5.43949V4.37111C15.0044 3.32181 15.8285 2.49778 16.8778 2.49778C17.9271 2.49778 18.7511 3.32181 18.7511 4.37111V24.9778H16.4615C15.1938 24.9778 14.1942 23.9836 14.1767 22.719C14.1729 22.4417 14.0768 22.1735 13.9037 21.9568C13.7305 21.7401 13.4902 21.5872 13.2206 21.5222C11.4092 21.0851 10.0705 19.5101 10.0187 17.5966C10.0699 15.6735 11.6108 14.1541 13.5474 14.1541C14.1643 14.1541 14.7358 14.3089 15.2386 14.5834C15.3828 14.6659 15.542 14.7189 15.7069 14.7392C15.8718 14.7594 16.0391 14.7466 16.199 14.7014C16.3589 14.6562 16.5082 14.5795 16.6381 14.4759C16.7679 14.3723 16.8759 14.2438 16.9555 14.098C17.0351 13.9522 17.0848 13.7919 17.1018 13.6266C17.1187 13.4614 17.1024 13.2944 17.054 13.1354C17.0056 12.9765 16.9259 12.8288 16.8197 12.701C16.7135 12.5733 16.5829 12.468 16.4355 12.3913C15.5778 11.9231 14.589 11.6563 13.5474 11.6563C10.3831 11.6563 7.77107 14.1276 7.53388 17.234C7.51789 17.3165 7.51026 17.4004 7.51112 17.4844C7.51112 17.5234 7.51531 17.5612 7.516 17.5999C7.51551 17.6311 7.51112 17.6613 7.51112 17.6926C7.5107 17.7656 7.51668 17.8385 7.529 17.9105C7.70288 20.5504 9.47438 22.7135 11.866 23.6232C12.1149 24.8216 12.7777 25.8252 13.7426 26.5161L14.5995 30.3701C14.9788 32.0775 16.5078 33.3037 18.2568 33.3037H20H21.7432C23.4924 33.3037 25.0209 32.0774 25.4005 30.3701C25.4413 30.2082 25.4492 30.0397 25.4237 29.8747C25.3983 29.7096 25.34 29.5514 25.2524 29.4092C25.1647 29.2671 25.0494 29.144 24.9134 29.0472C24.7773 28.9504 24.6232 28.8819 24.4602 28.8457C24.2972 28.8094 24.1285 28.8063 23.9643 28.8364C23.8 28.8665 23.6435 28.9292 23.5039 29.0208C23.3643 29.1125 23.2445 29.2312 23.1515 29.3699C23.0586 29.5086 22.9945 29.6646 22.9629 29.8286C22.8345 30.406 22.3353 30.8059 21.7432 30.8059H20H18.2568C17.6629 30.8059 17.1657 30.4075 17.0371 29.8286L16.5151 27.4755H19.7951C19.9292 27.4976 20.0659 27.4976 20.2 27.4755H23.5385C25.8366 27.4755 27.6831 25.7939 28.134 23.6232C30.5237 22.7142 32.2947 20.554 32.471 17.917C32.4837 17.8429 32.4897 17.7678 32.4889 17.6926C32.4889 17.6613 32.4845 17.6311 32.484 17.5999C32.4847 17.5612 32.4889 17.5234 32.4889 17.4844C32.4889 17.3699 32.4682 17.2619 32.4612 17.1494C32.4582 17.1154 32.4568 17.0809 32.4531 17.047C32.368 15.9944 32.0053 15.028 31.4904 14.1606C32.0772 13.1692 32.4889 12.0563 32.4889 10.8237C32.4889 7.33143 29.7691 4.45821 26.3404 4.19548C26.2988 4.19176 26.257 4.19014 26.2152 4.19061C25.8939 4.19671 25.5873 4.32644 25.3591 4.55281C25.131 4.77917 24.9989 5.08476 24.9903 5.40602C24.9818 5.72728 25.0973 6.03949 25.313 6.27772C25.5287 6.51595 25.828 6.66187 26.1485 6.68513C28.3049 6.85036 29.9911 8.61938 29.9911 10.8237C29.9911 11.448 29.843 12.0276 29.5976 12.5556C28.6791 11.9895 27.6045 11.6563 26.4526 11.6563C25.411 11.6563 24.4222 11.9231 23.5645 12.3913C23.4171 12.468 23.2865 12.5733 23.1803 12.701C23.0741 12.8288 22.9944 12.9765 22.946 13.1354C22.8976 13.2944 22.8813 13.4614 22.8982 13.6266C22.9152 13.7919 22.9649 13.9522 23.0445 14.098C23.1241 14.2438 23.2321 14.3723 23.3619 14.4759C23.4918 14.5795 23.6411 14.6562 23.801 14.7014C23.9609 14.7466 24.1282 14.7594 24.2931 14.7392C24.458 14.7189 24.6172 14.6659 24.7614 14.5834C25.2642 14.3089 25.8357 14.1541 26.4526 14.1541C28.3892 14.1541 29.9301 15.6735 29.9814 17.5966C29.9295 19.5101 28.5908 21.0851 26.7794 21.5222C26.5098 21.5872 26.2695 21.7401 26.0963 21.9568C25.9232 22.1735 25.8271 22.4417 25.8233 22.719C25.8058 23.9836 24.8062 24.9778 23.5385 24.9778H21.2489V4.37111C21.2489 3.32181 22.0729 2.49778 23.1222 2.49778C23.4893 2.49778 23.8196 2.59882 24.1077 2.77748C24.247 2.8672 24.4029 2.92829 24.5661 2.95718C24.7293 2.98607 24.8967 2.98218 25.0584 2.94574C25.2201 2.9093 25.3729 2.84104 25.508 2.74493C25.643 2.64883 25.7576 2.5268 25.845 2.38597C25.9324 2.24513 25.9909 2.08831 26.0171 1.92463C26.0433 1.76095 26.0367 1.5937 25.9975 1.43262C25.9584 1.27154 25.8877 1.11986 25.7893 0.98641C25.691 0.852962 25.5671 0.740419 25.4249 0.655341C24.7571 0.24119 23.9624 0 23.1222 0C21.9016 0 20.796 0.514432 20 1.33182C19.204 0.514432 18.0984 0 16.8778 0ZM5.41663 0.819583C5.16808 0.819644 4.9252 0.893857 4.71907 1.03273C4.51294 1.1716 4.35293 1.36881 4.25951 1.59913C4.16608 1.82945 4.1435 2.08241 4.19465 2.32564C4.2458 2.56886 4.36836 2.7913 4.54663 2.96448L6.21182 4.62967C6.3269 4.74953 6.46474 4.84522 6.61726 4.91114C6.76978 4.97706 6.93393 5.01188 7.10008 5.01357C7.26623 5.01526 7.43105 4.98378 7.58488 4.92098C7.73872 4.85817 7.87847 4.7653 7.99597 4.64781C8.11346 4.53032 8.20633 4.39056 8.26913 4.23673C8.33194 4.08289 8.36342 3.91808 8.36173 3.75192C8.36004 3.58577 8.32521 3.42163 8.25929 3.2691C8.19337 3.11658 8.09768 2.97874 7.97782 2.86366L6.31264 1.19848C6.19623 1.0786 6.05695 0.983292 5.90304 0.91821C5.74913 0.853127 5.58373 0.81959 5.41663 0.819583ZM34.546 0.821209C34.2216 0.830662 33.9137 0.965966 33.6874 1.19848L32.0222 2.86366C31.9023 2.97874 31.8066 3.11658 31.7407 3.2691C31.6748 3.42163 31.64 3.58577 31.6383 3.75192C31.6366 3.91808 31.6681 4.08289 31.7309 4.23673C31.7937 4.39056 31.8865 4.53032 32.004 4.64781C32.1215 4.7653 32.2613 4.85817 32.4151 4.92097C32.569 4.98378 32.7338 5.01526 32.8999 5.01357C33.0661 5.01188 33.2302 4.97706 33.3827 4.91114C33.5353 4.84522 33.6731 4.74953 33.7882 4.62967L35.4534 2.96448C35.6335 2.78901 35.7565 2.56323 35.8063 2.3167C35.856 2.07016 35.8302 1.81435 35.7321 1.58275C35.6341 1.35115 35.4684 1.15455 35.2567 1.01867C35.0451 0.882791 34.7974 0.813969 34.546 0.821209ZM1.26668 12.4889C1.10118 12.4865 0.936876 12.5171 0.783302 12.5788C0.629728 12.6405 0.489952 12.7322 0.372094 12.8484C0.254237 12.9646 0.16065 13.103 0.0967725 13.2557C0.0328947 13.4084 0 13.5723 0 13.7378C0 13.9033 0.0328947 14.0671 0.0967725 14.2198C0.16065 14.3725 0.254237 14.511 0.372094 14.6272C0.489952 14.7434 0.629728 14.835 0.783302 14.8967C0.936876 14.9584 1.10118 14.989 1.26668 14.9867H3.76445C3.92994 14.989 4.09425 14.9584 4.24783 14.8967C4.4014 14.835 4.54118 14.7434 4.65903 14.6272C4.77689 14.511 4.87048 14.3725 4.93436 14.2198C4.99823 14.0671 5.03113 13.9033 5.03113 13.7378C5.03113 13.5723 4.99823 13.4084 4.93436 13.2557C4.87048 13.103 4.77689 12.9646 4.65903 12.8484C4.54118 12.7322 4.4014 12.6405 4.24783 12.5788C4.09425 12.5171 3.92994 12.4865 3.76445 12.4889H1.26668ZM36.2355 12.4889C36.0701 12.4865 35.9057 12.5171 35.7522 12.5788C35.5986 12.6405 35.4588 12.7322 35.341 12.8484C35.2231 12.9646 35.1295 13.103 35.0656 13.2557C35.0018 13.4084 34.9689 13.5723 34.9689 13.7378C34.9689 13.9033 35.0018 14.0671 35.0656 14.2198C35.1295 14.3725 35.2231 14.511 35.341 14.6272C35.4588 14.7434 35.5986 14.835 35.7522 14.8967C35.9057 14.9584 36.0701 14.989 36.2355 14.9867H38.7333C38.8988 14.989 39.0631 14.9584 39.2167 14.8967C39.3703 14.835 39.51 14.7434 39.6279 14.6272C39.7458 14.511 39.8394 14.3725 39.9032 14.2198C39.9671 14.0671 40 13.9033 40 13.7378C40 13.5723 39.9671 13.4084 39.9032 13.2557C39.8394 13.103 39.7458 12.9646 39.6279 12.8484C39.51 12.7322 39.3703 12.6405 39.2167 12.5788C39.0631 12.5171 38.8988 12.4865 38.7333 12.4889H36.2355ZM32.8922 23.2996C32.6436 23.2996 32.4007 23.3738 32.1946 23.5127C31.9885 23.6516 31.8285 23.8488 31.735 24.0791C31.6416 24.3094 31.619 24.5624 31.6702 24.8056C31.7213 25.0489 31.8439 25.2713 32.0222 25.4445L33.6874 27.1097C33.8024 27.2295 33.9403 27.3252 34.0928 27.3911C34.2453 27.457 34.4095 27.4919 34.5756 27.4936C34.7418 27.4952 34.9066 27.4638 35.0604 27.401C35.2143 27.3382 35.354 27.2453 35.4715 27.1278C35.589 27.0103 35.6819 26.8705 35.7447 26.7167C35.8075 26.5629 35.839 26.3981 35.8373 26.2319C35.8356 26.0658 35.8008 25.9016 35.7348 25.7491C35.6689 25.5966 35.5732 25.4587 35.4534 25.3437L33.7882 23.6785C33.6718 23.5586 33.5325 23.4633 33.3786 23.3982C33.2247 23.3331 33.0593 23.2996 32.8922 23.2996ZM7.07043 23.3012C6.74609 23.3107 6.43815 23.446 6.21182 23.6785L4.54663 25.3437C4.42678 25.4587 4.33109 25.5966 4.26516 25.7491C4.19924 25.9016 4.16442 26.0658 4.16273 26.2319C4.16104 26.3981 4.19252 26.5629 4.25533 26.7167C4.31813 26.8705 4.411 27.0103 4.52849 27.1278C4.64599 27.2453 4.78574 27.3382 4.93957 27.401C5.09341 27.4638 5.25823 27.4952 5.42438 27.4936C5.59053 27.4919 5.75467 27.457 5.9072 27.3911C6.05972 27.3252 6.19756 27.2295 6.31264 27.1097L7.97782 25.4445C8.158 25.269 8.281 25.0432 8.33073 24.7967C8.38047 24.5502 8.35462 24.2943 8.25657 24.0627C8.15851 23.8311 7.99283 23.6345 7.78119 23.4987C7.56955 23.3628 7.32183 23.294 7.07043 23.3012Z" fill="black"/>
</svg>
